<svg xmlns="http://www.w3.org/2000/svg" viewBox="0 0 129.79 129.8"><defs><style>.cls-1{opacity:0.01;}.cls-2{fill:#e1338d;}.cls-3{fill:none;stroke:#000;stroke-linecap:round;stroke-linejoin:round;}</style></defs><g id="Layer_2" data-name="Layer 2"><g id="Layer_1-2" data-name="Layer 1"><g class="cls-1"><polygon class="cls-2" points="128.79 8.42 129.79 8.42 129.79 0 122.7 0 122.7 1 128.79 1 128.79 8.42"/><polygon class="cls-2" points="128.79 124.02 128.79 128.8 122.7 128.8 122.7 129.8 129.79 129.8 129.79 124.02 128.79 124.02"/><polygon class="cls-2" points="1 8.42 1 1 7.1 1 7.1 0 0 0 0 8.42 1 8.42"/><polygon class="cls-2" points="1 124.02 0 124.02 0 129.8 7.1 129.8 7.1 128.8 1 128.8 1 124.02"/></g><line class="cls-3" x1="79.06" y1="61.65" x2="79.85" y2="62.31"/><line class="cls-3" x1="71.65" y1="60.96" x2="70.18" y2="61.65"/><line class="cls-3" x1="73.41" y1="60.96" x2="75.89" y2="60.96"/><path class="cls-3" d="M79.85,62.31s0,.23,0,.28"/><line class="cls-3" x1="79.06" y1="61.65" x2="77.65" y2="60.96"/><line class="cls-3" x1="76.29" y1="65.83" x2="74.63" y2="67.3"/><line class="cls-3" x1="75.89" y1="60.96" x2="77.65" y2="60.96"/><line class="cls-3" x1="79.84" y1="62.59" x2="76.29" y2="65.83"/><line class="cls-3" x1="72.93" y1="65.83" x2="69.41" y2="62.59"/><line class="cls-3" x1="71.65" y1="60.96" x2="73.41" y2="60.96"/><line class="cls-3" x1="70.18" y1="61.65" x2="69.42" y2="62.31"/><line class="cls-3" x1="69.42" y1="62.31" x2="69.41" y2="62.59"/><line class="cls-3" x1="74.56" y1="67.3" x2="72.93" y2="65.83"/><path class="cls-3" d="M38.14,74.1v11a12,12,0,0,0,12,12H84.43a12,12,0,0,0,12-12v-11Z"/><path class="cls-3" d="M90.45,46.71l-3.61-7.3A12,12,0,0,0,70.76,34L40,49.21A12,12,0,0,0,34.6,65.29l3.62,7.3Z"/><path class="cls-3" d="M81.85,74.1a7.35,7.35,0,0,0-14.44,0Z"/></g></g></svg>