<svg xmlns="http://www.w3.org/2000/svg" viewBox="0 0 129.79 129.8"><defs><style>.cls-1,.cls-2{fill:none;stroke:#000;stroke-miterlimit:10;}.cls-1{stroke-width:0.5px;}.cls-3{opacity:0.01;}.cls-4{fill:#e1338d;}</style></defs><g id="Layer_2" data-name="Layer 2"><g id="Layer_1-2" data-name="Layer 1"><path class="cls-1" d="M51.35,51.38a19,19,0,0,0-4.18,6.28A19.74,19.74,0,0,0,45.7,64.9a19,19,0,0,0,1.48,7.4,18.47,18.47,0,0,0,4.33,6.32,19.43,19.43,0,0,0,6.24,4.08,19.13,19.13,0,0,0,14.49-.07A19.1,19.1,0,0,0,84.09,64.91a19.13,19.13,0,0,0-5.62-13.58,19.69,19.69,0,0,0-13.6-5.62,19.45,19.45,0,0,0-13.52,5.67Z"/><line class="cls-1" x1="60.36" y1="54.09" x2="64.82" y2="48.48"/><line class="cls-1" x1="64.82" y1="48.48" x2="69.52" y2="54.09"/><line class="cls-1" x1="69.52" y1="54.09" x2="76.39" y2="53.35"/><line class="cls-1" x1="76.39" y1="53.35" x2="76" y2="60.56"/><line class="cls-1" x1="76" y1="60.56" x2="81.18" y2="64.91"/><line class="cls-1" x1="81.18" y1="64.91" x2="76" y2="69.72"/><line class="cls-1" x1="76" y1="69.72" x2="76.59" y2="76.62"/><line class="cls-1" x1="76.59" y1="76.62" x2="69.53" y2="76.19"/><line class="cls-1" x1="69.53" y1="76.19" x2="64.86" y2="81.51"/><line class="cls-1" x1="64.86" y1="81.51" x2="60.38" y2="76.2"/><line class="cls-1" x1="53.38" y1="76.66" x2="60.38" y2="76.2"/><line class="cls-1" x1="53.89" y1="69.72" x2="53.38" y2="76.66"/><line class="cls-1" x1="48.48" y1="64.9" x2="53.89" y2="60.56"/><line class="cls-1" x1="53.89" y1="69.72" x2="48.48" y2="64.9"/><line class="cls-1" x1="53.89" y1="60.56" x2="53.29" y2="53.35"/><line class="cls-1" x1="53.29" y1="53.35" x2="60.36" y2="54.09"/><line class="cls-1" x1="76" y1="69.72" x2="76" y2="60.56"/><line class="cls-1" x1="69.53" y1="76.19" x2="76" y2="69.72"/><line class="cls-1" x1="60.38" y1="76.2" x2="69.53" y2="76.19"/><line class="cls-1" x1="53.89" y1="69.72" x2="60.38" y2="76.2"/><line class="cls-1" x1="53.89" y1="60.56" x2="53.89" y2="69.72"/><line class="cls-1" x1="60.36" y1="54.09" x2="53.89" y2="60.56"/><line class="cls-1" x1="69.52" y1="54.09" x2="60.36" y2="54.09"/><line class="cls-1" x1="76" y1="60.56" x2="69.52" y2="54.09"/><line class="cls-1" x1="48.48" y1="64.9" x2="45.7" y2="64.9"/><line class="cls-1" x1="51.51" y1="78.62" x2="53.38" y2="76.66"/><line class="cls-1" x1="64.86" y1="81.51" x2="64.9" y2="84.09"/><line class="cls-1" x1="78.42" y1="78.54" x2="76.59" y2="76.62"/><line class="cls-1" x1="81.18" y1="64.91" x2="84.09" y2="64.91"/><line class="cls-1" x1="76.39" y1="53.35" x2="78.47" y2="51.33"/><line class="cls-1" x1="64.87" y1="45.71" x2="64.82" y2="48.48"/><line class="cls-1" x1="51.35" y1="51.38" x2="53.29" y2="53.35"/><line class="cls-1" x1="47.17" y1="57.66" x2="53.29" y2="53.35"/><line class="cls-1" x1="48.48" y1="64.9" x2="47.17" y2="57.66"/><line class="cls-1" x1="53.38" y1="76.66" x2="47.18" y2="72.3"/><line class="cls-1" x1="47.18" y1="72.3" x2="48.48" y2="64.9"/><line class="cls-1" x1="57.75" y1="82.7" x2="53.38" y2="76.66"/><line class="cls-1" x1="64.86" y1="81.51" x2="57.75" y2="82.7"/><line class="cls-1" x1="72.24" y1="82.63" x2="76.59" y2="76.62"/><line class="cls-1" x1="64.86" y1="81.51" x2="72.24" y2="82.63"/><line class="cls-1" x1="81.18" y1="64.91" x2="82.64" y2="72.26"/><line class="cls-1" x1="82.64" y1="72.26" x2="76.59" y2="76.62"/><line class="cls-1" x1="82.62" y1="57.52" x2="76.39" y2="53.35"/><line class="cls-1" x1="81.18" y1="64.91" x2="82.62" y2="57.52"/><line class="cls-1" x1="72.21" y1="47.2" x2="64.82" y2="48.48"/><line class="cls-1" x1="76.39" y1="53.35" x2="72.21" y2="47.2"/><line class="cls-1" x1="57.49" y1="47.25" x2="53.29" y2="53.35"/><line class="cls-1" x1="64.82" y1="48.48" x2="57.49" y2="47.25"/><path class="cls-2" d="M51,51.06a19.22,19.22,0,0,0-4.28,6.43,20.11,20.11,0,0,0-1.51,7.42,19.55,19.55,0,0,0,1.52,7.59A18.89,18.89,0,0,0,51.18,79a20.09,20.09,0,0,0,6.39,4.18,19.61,19.61,0,0,0,14.85-.08A19.59,19.59,0,0,0,84.57,64.92,19.58,19.58,0,0,0,78.81,51a20.12,20.12,0,0,0-13.94-5.76,18.73,18.73,0,0,0-7.56,1.57A19.13,19.13,0,0,0,51,51.06Z"/><line class="cls-2" x1="45.98" y1="71.53" x2="18.14" y2="71.53"/><line class="cls-2" x1="46.02" y1="58.29" x2="18.14" y2="58.29"/><line class="cls-2" x1="35.56" y1="71.53" x2="18.14" y2="71.53"/><line class="cls-2" x1="35.56" y1="58.29" x2="18.14" y2="58.29"/><path class="cls-2" d="M18.14,58.29a16.41,16.41,0,0,0,0,13.24"/><line class="cls-2" x1="111.64" y1="58.29" x2="83.78" y2="58.29"/><line class="cls-2" x1="111.64" y1="71.53" x2="93.8" y2="71.53"/><line class="cls-2" x1="111.64" y1="58.29" x2="93.8" y2="58.29"/><path class="cls-2" d="M111.64,58.29a16.25,16.25,0,0,1,0,13.24"/><line class="cls-2" x1="111.64" y1="71.53" x2="83.82" y2="71.53"/><path class="cls-2" d="M56.71,80c-1-.55-2.58.07-3.74.91a3.89,3.89,0,0,0-1.88,3,3.46,3.46,0,0,0,5.16,2.91,3.9,3.9,0,0,0,1.62-3.17C58,82.26,57.68,80.56,56.71,80Z"/><path class="cls-2" d="M74,80.06c-.95.56-1.22,2.28-1.07,3.7a3.87,3.87,0,0,0,1.68,3.14,3.46,3.46,0,0,0,5.1-3,3.93,3.93,0,0,0-1.94-3C76.55,80.09,74.92,79.5,74,80.06Z"/><path class="cls-2" d="M82.28,65c0,1.1,1.36,2.2,2.67,2.78a3.89,3.89,0,0,0,3.55.12,3.47,3.47,0,0,0-.06-5.93,3.88,3.88,0,0,0-3.55.19C83.59,62.74,82.27,63.85,82.28,65Z"/><path class="cls-2" d="M73.34,49.78c1,.54,2.58-.08,3.75-.92a3.92,3.92,0,0,0,1.88-3,3.47,3.47,0,0,0-5.17-2.91,3.88,3.88,0,0,0-1.61,3.17C72.07,47.53,72.38,49.24,73.34,49.78Z"/><path class="cls-2" d="M56.09,49.73c.95-.56,1.23-2.27,1.08-3.7a3.91,3.91,0,0,0-1.68-3.14,3.46,3.46,0,0,0-5.1,3,3.87,3.87,0,0,0,1.94,3C53.51,49.71,55.14,50.3,56.09,49.73Z"/><path class="cls-2" d="M47.78,64.86c0-1.1-1.36-2.2-2.67-2.78A3.91,3.91,0,0,0,41.55,62a3.46,3.46,0,0,0,.07,5.93,3.88,3.88,0,0,0,3.55-.19C46.47,67.08,47.79,66,47.78,64.86Z"/><g class="cls-3"><polygon class="cls-4" points="128.79 8.42 129.79 8.42 129.79 0 122.7 0 122.7 1 128.79 1 128.79 8.42"/><polygon class="cls-4" points="128.79 124.02 128.79 128.8 122.7 128.8 122.7 129.8 129.79 129.8 129.79 124.02 128.79 124.02"/><polygon class="cls-4" points="1 8.42 1 1 7.1 1 7.1 0 0 0 0 8.42 1 8.42"/><polygon class="cls-4" points="1 124.02 0 124.02 0 129.8 7.1 129.8 7.1 128.8 1 128.8 1 124.02"/></g></g></g></svg>