<svg xmlns="http://www.w3.org/2000/svg" viewBox="0 0 129.79 129.8"><defs><style>.cls-1{opacity:0.01;}.cls-2{fill:#e1338d;}.cls-3,.cls-4{fill:none;stroke:#000;stroke-linecap:round;stroke-linejoin:round;}.cls-4{stroke-width:0.25px;}</style></defs><g id="Layer_2" data-name="Layer 2"><g id="Layer_1-2" data-name="Layer 1"><g class="cls-1"><polygon class="cls-2" points="128.79 8.42 129.79 8.42 129.79 0 122.7 0 122.7 1 128.79 1 128.79 8.42"/><polygon class="cls-2" points="128.79 124.02 128.79 128.8 122.7 128.8 122.7 129.8 129.79 129.8 129.79 124.02 128.79 124.02"/><polygon class="cls-2" points="1 8.42 1 1 7.1 1 7.1 0 0 0 0 8.42 1 8.42"/><polygon class="cls-2" points="1 124.02 0 124.02 0 129.8 7.1 129.8 7.1 128.8 1 128.8 1 124.02"/></g><line class="cls-3" x1="80.09" y1="29.79" x2="82.81" y2="32.05"/><line class="cls-3" x1="54.66" y1="27.42" x2="49.61" y2="29.79"/><line class="cls-3" x1="60.7" y1="27.42" x2="69.23" y2="27.42"/><path class="cls-3" d="M82.81,32.05c0,.17,0,.81,0,1"/><line class="cls-3" x1="80.09" y1="29.79" x2="75.26" y2="27.42"/><line class="cls-3" x1="70.6" y1="44.13" x2="64.91" y2="49.19"/><line class="cls-3" x1="69.23" y1="27.42" x2="75.26" y2="27.42"/><line class="cls-3" x1="82.77" y1="33.03" x2="70.6" y2="44.13"/><line class="cls-3" x1="59.06" y1="44.13" x2="46.99" y2="33.03"/><line class="cls-3" x1="54.66" y1="27.42" x2="60.7" y2="27.42"/><line class="cls-3" x1="49.61" y1="29.79" x2="47.02" y2="32.05"/><line class="cls-4" x1="64.79" y1="49.19" x2="64.82" y2="44.13"/><line class="cls-4" x1="64.88" y1="49.19" x2="68.97" y2="44.13"/><path class="cls-4" d="M48.37,33a8.63,8.63,0,0,1,3.85,0"/><path class="cls-4" d="M47,33a.31.31,0,0,1,.3-.3,2.91,2.91,0,0,1,.51,0c.25,0,.32.19.57.27"/><line class="cls-4" x1="64.88" y1="29.73" x2="58.04" y2="33.03"/><line class="cls-4" x1="75.26" y1="27.42" x2="75.82" y2="29.73"/><line class="cls-4" x1="71.72" y1="33.03" x2="75.82" y2="29.73"/><line class="cls-4" x1="58.04" y1="33.03" x2="54.17" y2="29.73"/><path class="cls-4" d="M81.42,33a4.18,4.18,0,0,1,.69-.2c.21,0,.66-.13.66.2"/><line class="cls-4" x1="77.56" y1="33.03" x2="75.82" y2="29.73"/><line class="cls-4" x1="64.88" y1="33.03" x2="64.91" y2="32.05"/><line class="cls-4" x1="75.82" y1="29.73" x2="69.23" y2="27.42"/><line class="cls-4" x1="68.97" y1="44.13" x2="77.56" y2="33.03"/><line class="cls-4" x1="64.82" y1="44.13" x2="58.04" y2="33.03"/><line class="cls-4" x1="71.72" y1="33.03" x2="68.97" y2="44.13"/><line class="cls-4" x1="64.71" y1="49.19" x2="60.74" y2="44.13"/><line class="cls-4" x1="64.88" y1="33.03" x2="64.82" y2="44.13"/><line class="cls-4" x1="52.22" y1="33.03" x2="54.17" y2="29.73"/><line class="cls-4" x1="54.66" y1="27.42" x2="54.17" y2="29.73"/><path class="cls-4" d="M71.72,33a18.45,18.45,0,0,1,5.84,0"/><line class="cls-4" x1="64.88" y1="29.73" x2="60.7" y2="27.42"/><line class="cls-4" x1="69.23" y1="27.42" x2="64.88" y2="29.73"/><path class="cls-4" d="M77.56,33a8.67,8.67,0,0,1,3.86,0"/><line class="cls-4" x1="54.17" y1="29.73" x2="60.7" y2="27.42"/><line class="cls-4" x1="64.82" y1="44.13" x2="71.72" y2="33.03"/><line class="cls-4" x1="52.22" y1="33.03" x2="60.74" y2="44.13"/><line class="cls-4" x1="58.04" y1="33.03" x2="60.74" y2="44.13"/><line class="cls-4" x1="64.88" y1="29.73" x2="64.91" y2="32.05"/><path class="cls-4" d="M64.88,33A25.68,25.68,0,0,0,58,33"/><path class="cls-4" d="M71.72,33a26.1,26.1,0,0,0-6.84,0"/><line class="cls-4" x1="64.88" y1="29.73" x2="71.72" y2="33.03"/><line class="cls-4" x1="81.42" y1="33.03" x2="75.82" y2="29.73"/><path class="cls-4" d="M58,33a18.33,18.33,0,0,0-5.82,0"/><line class="cls-4" x1="54.17" y1="29.73" x2="48.37" y2="33.03"/><line class="cls-3" x1="47.02" y1="32.05" x2="46.99" y2="33.03"/><line class="cls-3" x1="64.67" y1="49.19" x2="59.06" y2="44.13"/><circle class="cls-3" cx="64.9" cy="77.17" r="25.21"/></g></g></svg>