<svg id="Layer_2" data-name="Layer 2" xmlns="http://www.w3.org/2000/svg" viewBox="0 0 228.11 60.46"><defs><style>.cls-1{fill:none;}.cls-2{fill:#070606;}.cls-3{fill:#f1e5eb;}</style></defs><polygon class="cls-1" points="42.34 8.7 38.16 19.35 46.32 19.35 42.34 8.7"/><polygon class="cls-1" points="179.52 19.35 187.68 19.35 183.7 8.7 179.52 19.35"/><path class="cls-2" d="M30.66,9.13h.51a2.69,2.69,0,0,1,1.27.32,2.38,2.38,0,0,1,1.26,2.13V22.13H17.55V11.58a2.53,2.53,0,0,1,2.52-2.45h.52V8.74H11.94v.39h.51a2.45,2.45,0,0,1,1.76.71A2.48,2.48,0,0,1,15,11.58V33.5a2.55,2.55,0,0,1-.77,1.76,2.39,2.39,0,0,1-1.76.73h-.51v.4h8.65V36h-.52a2.44,2.44,0,0,1-1.77-.73,2.37,2.37,0,0,1-.75-1.76V23.31H33.7V33.54A2.53,2.53,0,0,1,31.17,36h-.51v.4h8.65V36H38.8A2.39,2.39,0,0,1,37,35.26a2.55,2.55,0,0,1-.77-1.76V11.62A2.55,2.55,0,0,1,37,9.86a2.39,2.39,0,0,1,1.76-.73h.51V8.74H30.66Z" transform="translate(-11.94 -7.98)"/><path class="cls-2" d="M49.7,28.32h8.95L60.78,34a2.48,2.48,0,0,1,.13.8,1.43,1.43,0,0,1-.35.85,1.25,1.25,0,0,1-1,.44h-.3v.34h7.46v-.34h-.26a2.89,2.89,0,0,1-1.66-.53A3.55,3.55,0,0,1,63.5,34L54.61,12.7h-.3a12.08,12.08,0,0,1-1.23,3.42L45.59,34a3.76,3.76,0,0,1-1.3,1.56,2.84,2.84,0,0,1-1.62.53h-.3v.34H49v-.34h-.3a1.27,1.27,0,0,1-1.05-.44,1.42,1.42,0,0,1-.35-.83,2.38,2.38,0,0,1,.14-.78Zm4.58-11.64,4,10.65H50.1Z" transform="translate(-11.94 -7.98)"/><path class="cls-2" d="M76.33,36.05h-.39a2,2,0,0,1-1.51-.61A2,2,0,0,1,73.81,34V14.2h2.13c.79,0,1.45,0,2,0a3.89,3.89,0,0,1,2.95,1.46A5.85,5.85,0,0,1,82,19.27V20a4.44,4.44,0,0,1-.2,1.24c-.71,2.23-2.43,3.38-5.18,3.45l-1.06,0a6.34,6.34,0,0,1-.69,0V25A3,3,0,0,1,77,26.17c.24.26.48.54.7.81s1,1.39,2.35,3.34,2.17,3.09,2.47,3.43a13.22,13.22,0,0,0,1.06,1.06,7.37,7.37,0,0,0,4.5,1.58h1.82v-.34a4.63,4.63,0,0,1-2.05-.46,4.51,4.51,0,0,1-.87-.53c-.28-.22-.55-.45-.79-.68s-.66-.66-1.23-1.3-1.81-2.3-3.71-5a11.4,11.4,0,0,0-1.22-1.41,4.43,4.43,0,0,0-1.17-.91,5,5,0,0,0,4-1.94,6.9,6.9,0,0,0,1.65-4.61,5.81,5.81,0,0,0-1.73-4.35,6.54,6.54,0,0,0-4.74-1.67h-9v.33h.43a2,2,0,0,1,1.48.61,2.17,2.17,0,0,1,.65,1.48V34A2.12,2.12,0,0,1,71,35.46a2.07,2.07,0,0,1-1.48.59H69.1v.34h7.27Z" transform="translate(-11.94 -7.98)"/><path class="cls-2" d="M100.31,36.05h-.43a2,2,0,0,1-1.47-.61A2.13,2.13,0,0,1,97.76,34V14.16h3.81a4,4,0,0,1,3.25,1.38,5.77,5.77,0,0,1,1.23,3.7V20a4.22,4.22,0,0,1-.2,1.26,4.89,4.89,0,0,1-2.49,3.05,6.45,6.45,0,0,1-4.47.53v.33a7.68,7.68,0,0,0,3.55.76,5.22,5.22,0,0,0,1.65-.33,6.17,6.17,0,0,0,3.85-3.28,6.26,6.26,0,0,0,.6-2.72,6.09,6.09,0,0,0-1.83-4.69,7,7,0,0,0-5-1.71H93.05l0,.33h.4a2,2,0,0,1,1.43.55,2.09,2.09,0,0,1,.69,1.37V34A2.12,2.12,0,0,1,95,35.44a2,2,0,0,1-1.48.61h-.43v.34h7.26Z" transform="translate(-11.94 -7.98)"/><path class="cls-2" d="M128.37,31H128a8.05,8.05,0,0,1-2.15,3.25,5.69,5.69,0,0,1-3.75,1.1H117.4V25.44H123a1.6,1.6,0,0,1,1.12.5,1.58,1.58,0,0,1,.44,1.12v.5h.33V22.32h-.33v.47a1.58,1.58,0,0,1-.46,1.16,1.65,1.65,0,0,1-1.13.49h-5.6V14.2h6.76A1.95,1.95,0,0,1,126,16.15v.6h.33V12.57a9.05,9.05,0,0,1-1.71.4,14.08,14.08,0,0,1-2.24.2h-9.71l0,.33h.4a2,2,0,0,1,1.42.55,2.12,2.12,0,0,1,.7,1.34V34a2.13,2.13,0,0,1-.65,1.48,2,2,0,0,1-1.47.61h-.43v.34h13.76Z" transform="translate(-11.94 -7.98)"/><path class="cls-2" d="M139.55,36.05h-.4A2.08,2.08,0,0,1,137,34V14.2h2.12c.8,0,1.46,0,2,0a3.89,3.89,0,0,1,3,1.46,5.91,5.91,0,0,1,1.16,3.58V20a4.44,4.44,0,0,1-.2,1.24q-1.06,3.34-5.18,3.45l-1.06,0a6.21,6.21,0,0,1-.69,0V25a3,3,0,0,1,2.12,1.13c.24.26.47.54.69.81s1,1.39,2.36,3.34,2.17,3.09,2.47,3.43a13.22,13.22,0,0,0,1.06,1.06,6.71,6.71,0,0,0,1.84,1.06,6.86,6.86,0,0,0,2.66.52h1.82v-.34a4.7,4.7,0,0,1-2.06-.46,4.77,4.77,0,0,1-.86-.53,9,9,0,0,1-.79-.68c-.25-.23-.66-.66-1.23-1.3s-1.81-2.3-3.72-5a10.52,10.52,0,0,0-1.21-1.41,4.43,4.43,0,0,0-1.17-.91,5,5,0,0,0,4-1.94,6.89,6.89,0,0,0,1.64-4.61A5.8,5.8,0,0,0,146,14.84a6.54,6.54,0,0,0-4.74-1.67h-9v.33h.43a2,2,0,0,1,1.48.61,2.12,2.12,0,0,1,.64,1.48V34a2.1,2.1,0,0,1-2.12,2h-.43v.34h7.26Z" transform="translate(-11.94 -7.98)"/><path class="cls-2" d="M164.75,12.25a2.33,2.33,0,0,1,.65-1.64,2.28,2.28,0,0,1,1.6-.73h7.51v23.7a2.49,2.49,0,0,1-.77,1.7A2.46,2.46,0,0,1,172,36h-.51v.4h8.65V36h-.52a2.46,2.46,0,0,1-1.76-.71,2.52,2.52,0,0,1-.77-1.74V9.88h7.51a2.31,2.31,0,0,1,1.58.73,2.27,2.27,0,0,1,.67,1.64v.67l.4,0V8a14.13,14.13,0,0,1-1.56.42,14.5,14.5,0,0,1-3.22.3H169.1a16.64,16.64,0,0,1-2.69-.24,10.55,10.55,0,0,1-2-.48v5l.39,0Z" transform="translate(-11.94 -7.98)"/><path class="cls-2" d="M206.12,35.52A3.48,3.48,0,0,1,204.86,34L196,12.7h-.3a12.08,12.08,0,0,1-1.23,3.42L186.94,34a3.74,3.74,0,0,1-1.29,1.56,2.84,2.84,0,0,1-1.62.53h-.3v.34h6.66v-.34h-.29a1.26,1.26,0,0,1-1-.44,1.42,1.42,0,0,1-.35-.83,2.38,2.38,0,0,1,.14-.78l2.22-5.68H200L202.14,34a2.79,2.79,0,0,1,.13.8,1.43,1.43,0,0,1-.35.85,1.25,1.25,0,0,1-1,.44h-.3v.34H208v-.34h-.27A2.88,2.88,0,0,1,206.12,35.52Zm-14.66-8.19,4.17-10.65,4,10.65Z" transform="translate(-11.94 -7.98)"/><path class="cls-2" d="M210.29,13.5h.44a2.14,2.14,0,0,1,2.12,2.06V34a2.13,2.13,0,0,1-.65,1.48,2,2,0,0,1-1.47.61h-.44v.34h7.27v-.34h-.43a2.07,2.07,0,0,1-1.5-.61A2,2,0,0,1,215,34V15.56a2.09,2.09,0,0,1,.65-1.46,2,2,0,0,1,1.48-.6h.43v-.33h-7.27Z" transform="translate(-11.94 -7.98)"/><path class="cls-2" d="M238.74,12.89a12.76,12.76,0,0,1-2.71.24H224.82a14.32,14.32,0,0,1-2.25-.19,10,10,0,0,1-1.73-.4v4.18l.33,0v-.56a2,2,0,0,1,.55-1.38,1.91,1.91,0,0,1,1.34-.61h6.31V34a2.09,2.09,0,0,1-.65,1.43,2.07,2.07,0,0,1-1.48.59h-.43v.34h7.27v-.34h-.44a2.12,2.12,0,0,1-2.12-2V14.13h6.3a1.94,1.94,0,0,1,1.33.61,1.9,1.9,0,0,1,.56,1.38v.56l.34,0V12.54C239.89,12.6,239.45,12.72,238.74,12.89Z" transform="translate(-11.94 -7.98)"/><path class="cls-2" d="M64,52.25H58.76l0,.18H59a1.19,1.19,0,0,1,.8.3.89.89,0,0,1,.35.73V63.53a1.14,1.14,0,0,1-.35.81,1.09,1.09,0,0,1-.8.33h-.23v.18H62.7v-.18h-.23a1.16,1.16,0,0,1-1.16-1.14V58.91h3.06a.86.86,0,0,1,.61.27.85.85,0,0,1,.24.61v.27h.18V57.22h-.18v.27a.82.82,0,0,1-.25.61.88.88,0,0,1-.61.27h-3V52.81h3.8a.82.82,0,0,1,.63.26.84.84,0,0,1,.25.62V54h.18v-2a4.93,4.93,0,0,1-.92.21A7.88,7.88,0,0,1,64,52.25Z" transform="translate(-11.94 -7.98)"/><path class="cls-2" d="M69.66,54.6h.19a.9.9,0,0,1,.66.27,1,1,0,0,1,.29.65v8.25a1,1,0,0,1-.29.66.9.9,0,0,1-.66.27h-.19v.15h3.25V64.7h-.19a.94.94,0,0,1-.67-.27.9.9,0,0,1-.28-.66V55.52a.91.91,0,0,1,.29-.65.9.9,0,0,1,.66-.27h.19v-.15H69.66Z" transform="translate(-11.94 -7.98)"/><path class="cls-2" d="M83.66,54.6h.28a.9.9,0,0,1,.64.26.92.92,0,0,1,.28.65v7.36l-8.09-8.64h-.15l0,.24a11.35,11.35,0,0,1,.1,1.62v7.7a.85.85,0,0,1-.26.65.9.9,0,0,1-.64.26h-.28v.15h3.06V64.7h-.29a.88.88,0,0,1-.44-.12.85.85,0,0,1-.46-.77v-7.4l8.09,8.65h.13l0-.27a14,14,0,0,1-.1-1.63V55.49a.92.92,0,0,1,.28-.63.9.9,0,0,1,.64-.26h.27v-.15H83.66Z" transform="translate(-11.94 -7.98)"/><path class="cls-2" d="M95.52,63.9a2.48,2.48,0,0,1-1.67.49H91.72V60h2.53a.7.7,0,0,1,.49.22.69.69,0,0,1,.2.51v.22h.15V58.55h-.15v.21a.69.69,0,0,1-.2.52.75.75,0,0,1-.51.22H91.72V54.92h3a.84.84,0,0,1,.59.26.85.85,0,0,1,.24.61v.27h.15V54.19a4,4,0,0,1-.76.18,6.13,6.13,0,0,1-1,.08H89.61l0,.15h.18a1,1,0,0,1,.64.25,1,1,0,0,1,.31.6v8.32a1,1,0,0,1-.29.66.93.93,0,0,1-.66.27h-.2v.15h6.17l.86-2.41h-.15A3.62,3.62,0,0,1,95.52,63.9Z" transform="translate(-11.94 -7.98)"/><path class="cls-2" d="M105.05,52.43h.24a1.11,1.11,0,0,1,.8.33,1.16,1.16,0,0,1,.35.8V64.8a4.18,4.18,0,0,1-.61,2.16,2.92,2.92,0,0,1-1.5,1.33v.16a3,3,0,0,0,2.33-1,3.69,3.69,0,0,0,1-2.56V53.56a1.22,1.22,0,0,1,.16-.57,1.1,1.1,0,0,1,1-.56H109v-.18h-3.94Z" transform="translate(-11.94 -7.98)"/><path class="cls-2" d="M117.05,63.9a2.48,2.48,0,0,1-1.67.49h-2.13V60h2.53a.72.72,0,0,1,.7.73v.22h.14V58.55h-.14v.21a.7.7,0,0,1-.21.52.75.75,0,0,1-.51.22h-2.51V54.92h3a.83.83,0,0,1,.59.26.85.85,0,0,1,.24.61v.27h.15V54.19a4,4,0,0,1-.76.18,6.09,6.09,0,0,1-1,.08h-4.35v.15h.18a.93.93,0,0,1,.64.25,1,1,0,0,1,.31.6v8.32a1,1,0,0,1-.29.66.9.9,0,0,1-.66.27h-.19v.15h6.16l.86-2.41H118A3.62,3.62,0,0,1,117.05,63.9Z" transform="translate(-11.94 -7.98)"/><path class="cls-2" d="M131.39,54.6h.13a.54.54,0,0,1,.46.2.61.61,0,0,1,.15.36,1.2,1.2,0,0,1,0,.33l-2,6.95-2.92-8.21H127l-2.76,8.52L122,55.51a1.66,1.66,0,0,1,0-.33.62.62,0,0,1,.16-.38.56.56,0,0,1,.46-.2h.14v-.15h-3.3v.15h.12a1.46,1.46,0,0,1,.76.23,1.44,1.44,0,0,1,.55.68L124.23,65h.13a6.48,6.48,0,0,1,.31-1.65l2.26-6.85,3,8.5h.13a6.32,6.32,0,0,1,.33-1.65l2.47-7.86a1.13,1.13,0,0,1,.34-.52,1.35,1.35,0,0,1,1-.4h.12v-.15h-2.92Z" transform="translate(-11.94 -7.98)"/><path class="cls-2" d="M142.06,63.9a2.5,2.5,0,0,1-1.68.49h-2.12V60h2.52a.7.7,0,0,1,.5.22.69.69,0,0,1,.2.51v.22h.15V58.55h-.15v.21a.73.73,0,0,1-.71.74h-2.51V54.92h3a.84.84,0,0,1,.59.26.85.85,0,0,1,.24.61v.27h.15V54.19a4,4,0,0,1-.77.18,6,6,0,0,1-1,.08h-4.35l0,.15h.17a.92.92,0,0,1,.64.25.94.94,0,0,1,.32.6v8.32a1,1,0,0,1-.29.66.94.94,0,0,1-.67.27h-.19v.15h6.16l.86-2.41H143A3.62,3.62,0,0,1,142.06,63.9Z" transform="translate(-11.94 -7.98)"/><path class="cls-2" d="M151.59,63.9a2.48,2.48,0,0,1-1.67.49h-2.13V55.54a.92.92,0,0,1,.14-.48.9.9,0,0,1,.81-.46h.2v-.15h-3.26v.15h.2a.94.94,0,0,1,.66.28,1,1,0,0,1,.29.66v8.23a1,1,0,0,1-.29.66.93.93,0,0,1-.66.27h-.2v.15h6.17l.86-2.41h-.15A3.62,3.62,0,0,1,151.59,63.9Z" transform="translate(-11.94 -7.98)"/><path class="cls-2" d="M160.83,63.9a2.51,2.51,0,0,1-1.68.49H157V55.54a.94.94,0,0,1,.95-.94h.19v-.15h-3.25v.15h.19a.91.91,0,0,1,.66.28.92.92,0,0,1,.29.66v8.23a1,1,0,0,1-.29.66.9.9,0,0,1-.66.27h-.19v.15h6.16l.86-2.41h-.14A3.62,3.62,0,0,1,160.83,63.9Z" transform="translate(-11.94 -7.98)"/><path class="cls-2" d="M170.07,63.9a2.53,2.53,0,0,1-1.68.49h-2.13V60h2.53a.72.72,0,0,1,.7.73v.22h.15V58.55h-.15v.21a.7.7,0,0,1-.21.52.75.75,0,0,1-.51.22h-2.51V54.92h3a.83.83,0,0,1,.59.26.86.86,0,0,1,.25.61v.27h.14V54.19a3.85,3.85,0,0,1-.76.18,6,6,0,0,1-1,.08h-4.35v.15h.18a1,1,0,0,1,1,.85v8.32a1,1,0,0,1-.29.66.9.9,0,0,1-.66.27h-.19v.15h6.16l.86-2.41H171A3.71,3.71,0,0,1,170.07,63.9Z" transform="translate(-11.94 -7.98)"/><path class="cls-2" d="M181.78,64.26a3.65,3.65,0,0,1-.36-.31c-.1-.1-.29-.3-.54-.58a27.63,27.63,0,0,1-1.67-2.25,6.23,6.23,0,0,0-.54-.63,2,2,0,0,0-.53-.41,2.25,2.25,0,0,0,1.79-.87,3.06,3.06,0,0,0,.74-2.06,2.61,2.61,0,0,0-.77-1.95,2.94,2.94,0,0,0-2.13-.75h-4v.15h.2a.94.94,0,0,1,.66.28,1,1,0,0,1,.29.66v8.24a.92.92,0,0,1-.29.65.93.93,0,0,1-.66.27h-.2v.15H177V64.7h-.18a.92.92,0,0,1-.67-.27.9.9,0,0,1-.28-.66V54.92h1.84a1.73,1.73,0,0,1,1.32.65,2.6,2.6,0,0,1,.52,1.61v.33a2.29,2.29,0,0,1-.08.56,2.21,2.21,0,0,1-2.32,1.54l-.48,0-.31,0v.15a1.34,1.34,0,0,1,.95.51c.11.11.21.24.31.36s.45.62,1.06,1.49,1,1.39,1.1,1.54.3.31.48.47a2.77,2.77,0,0,0,.82.48,3.15,3.15,0,0,0,1.19.23h.82V64.7a2,2,0,0,1-.92-.21A2.65,2.65,0,0,1,181.78,64.26Z" transform="translate(-11.94 -7.98)"/><path class="cls-2" d="M189.7,54.6h.17a.65.65,0,0,1,.61.61.66.66,0,0,1-.07.3L188,59.68l-2.22-4.16a.64.64,0,0,1-.08-.3.68.68,0,0,1,.09-.32.56.56,0,0,1,.5-.3h.2v-.15h-3.65v.15h.2a1.63,1.63,0,0,1,.86.26,1.91,1.91,0,0,1,.63.6l2.84,4.74v3.58a.89.89,0,0,1-.3.65.9.9,0,0,1-.66.27h-.19v.15h3.24V64.7h-.18a.94.94,0,0,1-.68-.27.93.93,0,0,1-.27-.66V60.22l2.92-4.76a2.31,2.31,0,0,1,.67-.61,1.58,1.58,0,0,1,.83-.25H193v-.15H189.7Z" transform="translate(-11.94 -7.98)"/><rect class="cls-3" x="46.68" y="37.62" width="134.58" height="0.75"/></svg>